HIERARCHY
ROOT Hips
{
	OFFSET 0.00 0.00 0.00
	CHANNELS 6 Xposition Yposition Zposition Yrotation Xrotation Zrotation
	JOINT Spine
	{
		OFFSET	0.0000	9.2263	1.5771
		CHANNELS 3 Xrotation Yrotation Zrotation
		JOINT Spine1
		{
			OFFSET	0.0000	16.2540	-0.1656
			CHANNELS 3 Xrotation Yrotation Zrotation
			JOINT Spine2
			{
				OFFSET	0.0000	13.6396	-1.2923
				CHANNELS 3 Xrotation Yrotation Zrotation
				JOINT Neck
				{
					OFFSET	0.0000	13.8774	-4.3542
					CHANNELS 3 Xrotation Yrotation Zrotation
					JOINT Neck1
					{
						OFFSET	0.0000	4.3400	0.9269
						CHANNELS 3 Xrotation Yrotation Zrotation
						JOINT Head
						{
							OFFSET	0.0000	4.0266	0.8585
							CHANNELS 3 Xrotation Yrotation Zrotation
							End Site
							{
								OFFSET 0.0000 23.0297 0.1231
							}
						}
					}
				}
				JOINT LeftShoulder
				{
					OFFSET	6.1442	10.1870	-3.7932
					CHANNELS 3 Zrotation Xrotation Yrotation
					JOINT LeftArm
					{
						OFFSET	12.3191	-1.1130	-1.7935
						CHANNELS 3 Zrotation Xrotation Yrotation
						JOINT LeftForeArm
						{
							OFFSET	27.6870	0.0000	0.0000
							CHANNELS 3 Xrotation Zrotation Yrotation
							JOINT LeftHand
							{
								OFFSET	27.8738	0.0000	0.0000
								CHANNELS 3 Zrotation Yrotation Xrotation
								JOINT LeftHandThumb1
								{
									OFFSET	2.3785	-1.0029	2.6209
									CHANNELS 3 Zrotation Xrotation Yrotation
									JOINT LeftHandThumb2
									{
										OFFSET	3.3624	-1.0029	2.8398
										CHANNELS 3 Zrotation Xrotation Yrotation
										JOINT LeftHandThumb3
										{
											OFFSET	4.5018	-1.3445	2.1783
											CHANNELS 3 Zrotation Xrotation Yrotation
											End Site
											{
												OFFSET 2.6000 -1.0000 1.0000
											}
										}
									}
								}
								JOINT LeftHandMiddle1
								{
									OFFSET	10.4639	0.6148	0.4298
									CHANNELS 3 Zrotation Xrotation Yrotation
									JOINT LeftHandMiddle2
									{
										OFFSET	5.7921	0.0000	0.0000
										CHANNELS 3 Zrotation Xrotation Yrotation
										JOINT LeftHandMiddle3
										{
											OFFSET	3.7132	0.0000	0.0000
											CHANNELS 3 Zrotation Xrotation Yrotation
											End Site
											{
												OFFSET 2.3000 0.0000 0.0000
											}
										}
									}
								}
								JOINT LeftHandIndex1
								{
									OFFSET	10.3945	0.6148	2.7055
									CHANNELS 3 Zrotation Xrotation Yrotation
									JOINT LeftHandIndex2
									{
										OFFSET	5.5493	0.0000	0.0000
										CHANNELS 3 Zrotation Xrotation Yrotation
										JOINT LeftHandIndex3
										{
											OFFSET	3.3911	0.0000	0.0000
											CHANNELS 3 Zrotation Xrotation Yrotation
											End Site
											{
												OFFSET 2.5000 0.0000 0.0000
											}
										}
									}
								}
								JOINT LeftHandRing1
								{
									OFFSET	10.3252	0.3211	-1.8755
									CHANNELS 3 Zrotation Xrotation Yrotation
									JOINT LeftHandRing2
									{
										OFFSET	5.4452	0.0000	0.0000
										CHANNELS 3 Zrotation Xrotation Yrotation
										JOINT LeftHandRing3
										{
											OFFSET	3.7132	0.0000	0.0000
											CHANNELS 3 Zrotation Xrotation Yrotation
											End Site
											{
												OFFSET 2.0000 0.0000 0.0000
											}
										}
									}
								}
								JOINT LeftHandPinky1
								{
									OFFSET	10.0130	-0.0783	-3.9671
									CHANNELS 3 Zrotation Xrotation Yrotation
									JOINT LeftHandPinky2
									{
										OFFSET	3.6763	0.0000	0.0000
										CHANNELS 3 Zrotation Xrotation Yrotation
										JOINT LeftHandPinky3
										{
											OFFSET	2.8113	0.0000	0.0000
											CHANNELS 3 Zrotation Xrotation Yrotation
											End Site
											{
												OFFSET 2.9000 0.0000 0.0000
											}
										}
									}
								}
							}
						}
					}
				}
				JOINT RightShoulder
				{
					OFFSET	-6.1402	10.1870	-3.7932
					CHANNELS 3 Zrotation Xrotation Yrotation
					JOINT RightArm
					{
						OFFSET	-12.3231	-1.1130	-1.7935
						CHANNELS 3 Zrotation Xrotation Yrotation
						JOINT RightForeArm
						{
							OFFSET	-27.6870	0.0000	0.0000
							CHANNELS 3 Xrotation Zrotation Yrotation
							JOINT RightHand
							{
								OFFSET	-27.8738	0.0000	0.0000
								CHANNELS 3 Zrotation Yrotation Xrotation
								JOINT RightHandThumb1
								{
									OFFSET	-2.5178	-0.9367	2.5137
									CHANNELS 3 Zrotation Xrotation Yrotation
									JOINT RightHandThumb2
									{
										OFFSET	-3.2638	-1.0870	2.9669
										CHANNELS 3 Zrotation Xrotation Yrotation
										JOINT RightHandThumb3
										{
											OFFSET	-4.4165	-1.3703	2.1350
											CHANNELS 3 Zrotation Xrotation Yrotation
											End Site
											{
												OFFSET -2.6000 -1.0000 1.0000
											}
										}
									}
								}
								JOINT RightHandIndex1
								{
									OFFSET	-10.4665	0.4896	2.7120
									CHANNELS 3 Zrotation Xrotation Yrotation
									JOINT RightHandIndex2
									{
										OFFSET	-5.3768	0.0000	0.0000
										CHANNELS 3 Zrotation Xrotation Yrotation
										JOINT RightHandIndex3
										{
											OFFSET	-3.3855	0.0000	0.0000
											CHANNELS 3 Zrotation Xrotation Yrotation
											End Site
											{
												OFFSET -2.6000 0.0000 0.0000
											}
										}
									}
								}
								JOINT RightHandMiddle1
								{
									OFFSET	-10.7596	0.4896	0.4278
									CHANNELS 3 Zrotation Xrotation Yrotation
									JOINT RightHandMiddle2
									{
										OFFSET	-5.6168	0.0000	0.0000
										CHANNELS 3 Zrotation Xrotation Yrotation
										JOINT RightHandMiddle3
										{
											OFFSET	-3.7364	0.0000	0.0000
											CHANNELS 3 Zrotation Xrotation Yrotation
											End Site
											{
												OFFSET -2.3000 0.0000 0.0000
											}
										}
									}
								}
								JOINT RightHandRing1
								{
									OFFSET	-10.4702	0.3879	-1.9363
									CHANNELS 3 Zrotation Xrotation Yrotation
									JOINT RightHandRing2
									{
										OFFSET	-5.4013	0.0000	0.0000
										CHANNELS 3 Zrotation Xrotation Yrotation
										JOINT RightHandRing3
										{
											OFFSET	-3.3916	0.0000	0.0000
											CHANNELS 3 Zrotation Xrotation Yrotation
											End Site
											{
												OFFSET -2.2000 0.0000 0.0000
											}
										}
									}
								}
								JOINT RightHandPinky1
								{
									OFFSET	-9.9715	-0.1191	-3.9540
									CHANNELS 3 Zrotation Xrotation Yrotation
									JOINT RightHandPinky2
									{
										OFFSET	-3.6528	0.0000	0.0000
										CHANNELS 3 Zrotation Xrotation Yrotation
										JOINT RightHandPinky3
										{
											OFFSET	-2.7820	0.0000	0.0000
											CHANNELS 3 Zrotation Xrotation Yrotation
											End Site
											{
												OFFSET -2.9000 0.0000 0.0000
											}
										}
									}
								}
							}
						}
					}
				}
			}
		}
	}
	JOINT LeftUpLeg
	{
		OFFSET	9.6338	-3.2733	0.0000
		CHANNELS 3 Xrotation Yrotation Zrotation
		JOINT LeftLeg
		{
			OFFSET	0.0000	-41.7300	-1.7300
			CHANNELS 3 Xrotation Yrotation Zrotation
			JOINT LeftFoot
			{
				OFFSET	0.0126	-39.1900	-0.8477
				CHANNELS 3 Xrotation Yrotation Zrotation
				JOINT LeftToeBase
				{
					OFFSET	-0.1833	-12.1931	8.2823
					CHANNELS 3 Xrotation Yrotation Zrotation
					End Site
					{
						OFFSET 0.0000 0.0000 10.1681
					}
				}
			}
		}
	}
	JOINT RightUpLeg
	{
		OFFSET	-9.6338	-3.2733	0.0000
		CHANNELS 3 Xrotation Yrotation Zrotation
		JOINT RightLeg
		{
			OFFSET	0.0000	-41.7300	-1.7300
			CHANNELS 3 Xrotation Yrotation Zrotation
			JOINT RightFoot
			{
				OFFSET	0.0126	-39.1900	-0.8477
				CHANNELS 3 Xrotation Yrotation Zrotation
				JOINT RightToeBase
				{
					OFFSET	-0.1833	-12.1931	8.2823
					CHANNELS 3 Xrotation Yrotation Zrotation
					End Site
					{
						OFFSET 0.0032 0.0000 10.1681
					}
				}
			}
		}
	}
}
MOTION
Frames: 6
Frame Time: 0.0333333
0.7801 81.5182 -0.5978 -54.3174 9.1652 -0.8549 7.4077 3.4661 -3.0854 1.2092 1.4207 2.3251 0.2093 1.2988 1.0497 -1.8521 9.7893 -1.5701 -0.0000 0.0000 -0.0000 -3.7103 23.6731 -4.9876 -4.0456 -1.7047 -10.0600 -45.2928 7.6070 -13.7627 -1.0569 -31.7040 -92.9557 -6.3642 2.3075 5.8622 -19.6953 11.5438 5.7991 8.6159 10.2811 1.1463 -2.0779 59.9823 -4.9818 -82.6725 5.0646 -11.4331 -75.4340 9.1854 -6.9928 -66.9460 3.6763 -3.8167 -75.4547 14.2316 -11.3223 -66.3931 7.6108 -7.1571 -69.3120 3.8132 -3.5298 -86.6883 4.3409 -10.4479 -61.7580 3.1853 -6.4820 -72.1567 2.9385 -5.3404 -83.1615 -1.0320 -14.3211 -73.5961 4.2794 -5.7215 -48.2400 2.0162 -4.4398 2.6742 -8.3071 -18.9522 51.8976 3.7169 -1.0086 -0.1091 4.5982 74.5282 13.0031 25.0731 8.2589 38.0405 14.3413 -39.0029 -18.3716 0.1878 21.0733 -15.5472 -16.1016 -17.6201 58.8270 1.7091 3.8420 65.8236 6.8089 6.0624 59.3252 2.8975 2.1494 65.2892 4.4411 6.3449 83.6702 9.0538 5.2555 32.7109 0.7924 0.9029 76.6346 1.6514 3.3266 72.7783 4.1786 5.4960 39.1058 0.2391 2.0570 83.4636 6.4928 8.8332 54.1894 1.9734 3.8539 25.7361 0.4705 2.0616 -68.1607 24.1669 43.6011 49.5077 -14.5779 4.7977 0.3635 0.3479 -10.2937 -2.7709 -3.7574 4.0974 -36.0096 -18.6571 -36.3492 45.3114 -1.0528 -5.4297 -14.0712 -4.9649 30.8260 -1.3699 0.6200 -0.9869 
1.2660 81.3065 -0.8357 -55.0733 8.9034 -1.1178 7.2769 3.2194 -2.9121 1.8276 1.2734 2.1255 0.8872 1.1590 0.9300 -0.8669 10.5926 -2.0429 -0.0000 0.0000 -0.0000 -4.8391 22.6960 -4.8491 -5.4856 -1.3602 -9.9154 -44.4698 7.3739 -14.6008 -4.5503 -27.0716 -86.2812 -4.5132 -0.4555 5.3709 -19.4810 11.3499 5.5250 8.6214 10.2934 1.1834 -1.7158 59.5473 -5.1858 -82.0905 4.9474 -11.4222 -75.0757 9.1419 -7.0128 -66.5214 3.6460 -3.7993 -74.8362 14.1226 -11.3472 -65.9585 7.5566 -7.1700 -68.8825 3.7868 -3.5141 -86.1877 4.2501 -10.4328 -61.5266 3.1613 -6.4748 -71.6967 2.8957 -5.3159 -82.7474 -1.1375 -14.2688 -73.3277 4.2526 -5.7135 -48.0394 2.0006 -4.4258 2.8464 -8.1902 -18.5588 51.7112 3.4436 -1.0411 -0.3175 4.5051 71.9271 13.2489 24.3028 8.7446 38.0405 14.3413 -39.0029 -18.3716 0.1878 21.0733 -15.5472 -16.1016 -17.6201 58.8270 1.7091 3.8419 65.8236 6.8090 6.0624 59.3252 2.8974 2.1494 65.2892 4.4411 6.3449 83.6702 9.0538 5.2555 32.7109 0.7924 0.9029 76.6346 1.6514 3.3266 72.7783 4.1786 5.4960 39.1058 0.2391 2.0570 83.4636 6.4928 8.8332 54.1894 1.9734 3.8539 25.7362 0.4704 2.0616 -68.1082 23.4511 43.7098 50.0851 -13.6323 4.8777 0.2680 0.3689 -10.4697 -2.7709 -3.7574 4.0974 -38.1292 -19.4473 -36.6443 46.7034 1.5221 -6.9086 -13.7484 -5.6028 30.2706 -1.7063 -0.9487 -0.9613 
1.9990 80.6569 -1.3255 -55.6535 8.5818 -1.2344 6.9305 2.5715 -2.4412 3.3685 0.8780 1.6767 2.5818 0.7829 0.6850 1.7548 12.3891 -3.3184 -0.0000 0.0000 -0.0000 -7.3505 20.3208 -4.4729 -9.1163 -0.4736 -9.5868 -42.2368 6.6694 -16.9978 -8.5584 -15.9088 -71.0659 -0.0726 -7.0155 4.7694 -18.8813 10.7883 4.7534 8.6336 10.3297 1.2995 -0.7314 58.3040 -5.7300 -80.4372 4.6151 -11.3848 -74.0578 9.0177 -7.0682 -65.3145 3.5666 -3.7489 -73.0813 13.8077 -11.4102 -64.7240 7.4023 -7.2042 -67.6621 3.7125 -3.4685 -84.7649 3.9894 -10.3851 -60.8700 3.0935 -6.4415 -70.3894 2.7751 -5.2441 -81.5702 -1.4352 -14.1163 -72.5652 4.1767 -5.6901 -47.4693 1.9567 -4.3859 3.3086 -7.8635 -17.4808 51.1926 2.6953 -1.1469 -0.8183 4.2349 65.1385 13.9207 22.2171 10.0639 38.0405 14.3413 -39.0029 -18.3716 0.1878 21.0733 -15.5473 -16.1016 -17.6201 58.8270 1.7091 3.8419 65.8236 6.8089 6.0624 59.3252 2.8974 2.1494 65.2892 4.4411 6.3449 83.6702 9.0538 5.2555 32.7109 0.7924 0.9029 76.6346 1.6514 3.3266 72.7783 4.1786 5.4960 39.1058 0.2391 2.0570 83.4636 6.4929 8.8332 54.1894 1.9734 3.8539 25.7362 0.4704 2.0616 -68.0912 21.8718 43.1934 51.5087 -11.9950 5.0468 0.0593 0.4151 -10.8427 -2.7709 -3.7574 4.0974 -43.0352 -21.4051 -37.6845 50.3726 4.1440 -10.8951 -13.4607 -5.4105 29.7575 -2.9053 -2.3725 -0.0785 
3.3067 79.3582 -1.9522 -56.6012 7.9895 -1.1628 6.4406 1.6741 -1.7522 5.3616 0.3046 1.2032 4.7857 0.2356 0.4860 5.4888 14.2553 -5.1804 -0.0000 0.0000 -0.0000 -9.9281 17.3807 -3.9150 -13.9012 0.7343 -9.2318 -39.7489 5.8993 -21.9356 -6.5495 -4.4185 -51.1785 4.7841 -13.7953 5.2294 -17.9712 9.8788 3.5688 8.6487 10.3783 1.4842 0.6880 56.3395 -6.4877 -77.8517 4.0977 -11.3071 -72.4662 8.8214 -7.1503 -63.4263 3.4444 -3.6668 -70.3441 13.3010 -11.4860 -62.7938 7.1594 -7.2511 -65.7529 3.5982 -3.3940 -82.5396 3.5842 -10.2976 -59.8441 2.9783 -6.3879 -68.3442 2.5897 -5.1265 -79.7265 -1.8945 -13.8654 -71.3725 4.0586 -5.6516 -46.5775 1.8887 -4.3226 3.9714 -7.3602 -15.8722 50.4121 1.5813 -1.3443 -1.3769 3.8289 55.6863 14.9216 19.1533 12.0106 38.0405 14.3413 -39.0029 -18.3716 0.1878 21.0733 -15.5473 -16.1016 -17.6201 58.8270 1.7091 3.8419 65.8236 6.8089 6.0624 59.3252 2.8974 2.1494 65.2892 4.4411 6.3449 83.6702 9.0538 5.2555 32.7109 0.7924 0.9029 76.6346 1.6514 3.3266 72.7783 4.1786 5.4960 39.1058 0.2391 2.0570 83.4636 6.4928 8.8332 54.1894 1.9734 3.8539 25.7361 0.4704 2.0616 -68.2522 19.3574 42.2187 54.5062 -9.2677 5.3671 -0.6131 0.5274 -11.4238 -2.7709 -3.7574 4.0974 -50.4775 -22.2988 -39.6315 56.9954 6.9904 -16.3692 -10.8519 -4.7188 30.4020 -6.4008 -2.7474 -0.2726 
4.1522 77.7867 -1.9303 -56.0803 6.4586 0.1028 5.8758 0.6607 -0.9418 7.3443 -0.3766 0.9294 6.9981 -0.4176 0.5044 9.6773 15.2778 -7.3789 -0.0000 0.0000 -0.0000 -11.2801 14.7106 -3.2097 -18.7891 2.0403 -9.0064 -38.6545 5.4784 -27.3017 -3.3311 -0.4912 -31.7077 7.2354 -17.1301 7.8953 -16.8335 8.6351 2.0612 8.6683 10.4419 1.7258 2.3501 53.7389 -7.3350 -74.4727 3.4275 -11.1704 -70.3872 8.5616 -7.2492 -60.9579 3.2889 -3.5534 -66.7804 12.6146 -11.5420 -60.2722 6.8397 -7.2998 -63.2571 3.4527 -3.2909 -79.6307 3.0601 -10.1596 -58.5027 2.8292 -6.3145 -65.6702 2.3539 -4.9629 -77.3122 -2.4822 -13.5152 -69.8132 3.9054 -5.5975 -45.4116 1.8014 -4.2382 4.7435 -6.7145 -13.8872 49.4360 0.2138 -1.6521 -1.7998 3.3800 45.0908 16.1518 15.4482 14.3759 38.0405 14.3413 -39.0029 -18.3716 0.1878 21.0733 -15.5473 -16.1016 -17.6201 58.8270 1.7091 3.8419 65.8236 6.8089 6.0624 59.3252 2.8975 2.1494 65.2892 4.4411 6.3449 83.6702 9.0538 5.2555 32.7109 0.7924 0.9029 76.6346 1.6514 3.3266 72.7783 4.1786 5.4960 39.1058 0.2391 2.0570 83.4636 6.4928 8.8332 54.1894 1.9734 3.8539 25.7361 0.4704 2.0616 -67.3536 17.6683 39.9613 58.3415 -7.2215 5.6971 -2.0661 0.7170 -11.8098 -2.7709 -3.7574 4.0974 -55.9504 -21.6524 -43.3716 63.4167 10.1971 -21.6071 -6.5447 -3.8752 34.4783 -11.1787 -2.7234 -3.6526 
3.9692 76.7263 -0.9691 -51.9829 1.4101 2.5642 5.2934 -0.3261 -0.0625 8.8673 -1.0951 1.0793 8.7282 -1.1114 0.9110 13.6759 12.8613 -9.8476 -0.0000 0.0000 -0.0000 -2.6064 11.9480 -2.3557 -22.7087 3.2179 -9.0647 -39.7717 5.5641 -28.9124 -5.9478 -1.4920 -21.8650 6.0449 -13.1113 13.4224 -15.5528 7.0728 0.3220 8.6912 10.5179 2.0142 4.0921 50.5913 -8.1793 -70.4382 2.6394 -10.9559 -67.9069 8.2470 -7.3546 -58.0102 3.1099 -3.4093 -62.5456 11.7631 -11.5434 -57.2633 6.4557 -7.3393 -60.2768 3.2850 -3.1596 -76.1568 2.4444 -9.9602 -56.9009 2.6535 -6.2225 -62.4767 2.0827 -4.7533 -74.4229 -3.1641 -13.0647 -67.9513 3.7245 -5.5275 -44.0190 1.6994 -4.1351 5.5415 -5.9672 -11.6785 48.3316 -1.2937 -2.0836 -1.9856 3.0412 34.8696 17.5055 11.4378 16.9441 38.0405 14.3413 -39.0029 -18.3716 0.1878 21.0733 -15.5472 -16.1016 -17.6201 58.8270 1.7091 3.8419 65.8236 6.8089 6.0624 59.3252 2.8975 2.1494 65.2892 4.4411 6.3449 83.6702 9.0538 5.2555 32.7109 0.7924 0.9029 76.6346 1.6514 3.3266 72.7783 4.1786 5.4960 39.1058 0.2391 2.0570 83.4636 6.4928 8.8332 54.1894 1.9734 3.8539 25.7362 0.4704 2.0616 -62.9866 18.5237 36.3042 61.3849 -8.6229 5.8040 -3.7464 0.7671 -10.4790 -2.7709 -3.7574 4.0974 -54.4354 -21.8767 -49.9276 67.3872 13.8747 -25.0788 -6.2683 -4.3048 39.1232 -11.7836 -4.3764 -9.1965 
